<svg width="64" height="64" viewBox="0 0 64 64" fill="none" xmlns="http://www.w3.org/2000/svg">
<circle cx="32" cy="32" r="32" fill="#34A853"/>
<circle cx="32" cy="32" r="32" fill="url(#paint0_linear_369_3)" fill-opacity="0.42"/>
<path d="M14 27.952H37.88V30.544H14V27.952ZM14 34.36H37.88V36.952H14V34.36ZM33.08 44.776C35.064 44.776 36.776 44.504 38.216 43.96C39.656 43.416 40.688 42.888 41.312 42.376L43.088 45.904C42.368 46.544 41.12 47.192 39.344 47.848C37.568 48.504 35.432 48.832 32.936 48.832C30.6 48.832 28.432 48.416 26.432 47.584C24.432 46.752 22.68 45.592 21.176 44.104C19.672 42.616 18.496 40.88 17.648 38.896C16.816 36.912 16.4 34.768 16.4 32.464C16.4 30.16 16.816 28.008 17.648 26.008C18.48 24.008 19.648 22.264 21.152 20.776C22.656 19.272 24.408 18.104 26.408 17.272C28.424 16.424 30.6 16 32.936 16C35.432 16 37.568 16.328 39.344 16.984C41.12 17.64 42.368 18.288 43.088 18.928L41.312 22.456C40.688 21.928 39.656 21.4 38.216 20.872C36.776 20.328 35.064 20.056 33.08 20.056C31.304 20.056 29.672 20.36 28.184 20.968C26.696 21.576 25.4 22.44 24.296 23.56C23.192 24.664 22.336 25.968 21.728 27.472C21.136 28.976 20.84 30.616 20.84 32.392C20.84 34.184 21.136 35.84 21.728 37.36C22.336 38.864 23.192 40.176 24.296 41.296C25.4 42.4 26.696 43.256 28.184 43.864C29.672 44.472 31.304 44.776 33.08 44.776Z" fill="white"/>
<defs>
<linearGradient id="paint0_linear_369_3" x1="32" y1="0" x2="32" y2="64" gradientUnits="userSpaceOnUse">
<stop stop-color="#00B3FF" stop-opacity="0"/>
<stop offset="1" stop-color="#00A2FF"/>
</linearGradient>
</defs>
</svg>
